HIERARCHY
ROOT Hips
{
	OFFSET 0.000000 0.000000 0.000000
	CHANNELS 6 Xposition Yposition Zposition Zrotation Yrotation Xrotation 
	JOINT LHipJoint
	{
		OFFSET 0.000000 0.000000 0.000000
		CHANNELS 3 Zrotation Yrotation Xrotation
		JOINT LeftUpLeg
		{
			OFFSET 1.363060 -1.794630 0.839290
			CHANNELS 3 Zrotation Yrotation Xrotation
			JOINT LeftLeg
			{
				OFFSET 2.448110 -6.726130 0.000000
				CHANNELS 3 Zrotation Yrotation Xrotation
				JOINT LeftFoot
				{
					OFFSET 2.562200 -7.039590 0.000000
					CHANNELS 3 Zrotation Yrotation Xrotation
					JOINT LeftToeBase
					{
						OFFSET 0.157640 -0.433110 2.322550
						CHANNELS 3 Zrotation Yrotation Xrotation
						End Site
						{
							OFFSET 0.000000 0.000000 0.000000
						}
					}
				}
			}
		}
	}
	JOINT RHipJoint
	{
		OFFSET 0.000000 0.000000 0.000000
		CHANNELS 3 Zrotation Yrotation Xrotation
		JOINT RightUpLeg
		{
			OFFSET -1.305520 -1.794630 0.839290
			CHANNELS 3 Zrotation Yrotation Xrotation
			JOINT RightLeg
			{
				OFFSET -2.542530 -6.985550 0.000000
				CHANNELS 3 Zrotation Yrotation Xrotation
				JOINT RightFoot
				{
					OFFSET -2.568260 -7.056230 0.000000
					CHANNELS 3 Zrotation Yrotation Xrotation
					JOINT RightToeBase
					{
						OFFSET -0.164730 -0.452590 2.363150
						CHANNELS 3 Zrotation Yrotation Xrotation
						End Site
						{
							OFFSET 0.000000 0.000000 0.000000
						}
					}
				}
			}
		}
	}
}
MOTION
Frames: 27
Frame Time: 0.008333
-20.364419 16.143571 -3.001297 -163.039386 87.487865 -154.310129 -11.989482 6.588760 1.218416 1.426298 9.861718 18.124725 -0.594576 1.205943 9.207311 0.900538 5.153169 13.248479 1.578900 0.000000 -88.684300 7.937640 0.309624 1.470071 14.780244 -5.666443 -49.782669 2.243145 -2.573004 41.950652 -2.887234 -7.660584 -20.094288 1.652300 0.000000 -24.892100
-20.124267 16.158968 -2.967574 -163.418617 87.388417 -154.699172 -12.006393 6.703932 1.358455 1.772961 9.484709 17.841372 -0.431117 1.353657 10.345255 0.982360 4.828720 16.330308 1.603800 0.000000 -90.473800 7.988813 0.280513 1.430191 14.730878 -5.649456 -49.231792 2.134248 -2.621124 43.010618 -3.015694 -8.141776 -20.818750 1.871200 -0.000000 -22.617300
-19.882923 16.175603 -2.932684 -163.700423 87.302795 -155.000998 -12.036128 6.801046 1.504092 2.118589 9.102418 17.453461 -0.264161 1.483278 11.627947 1.088185 4.367386 19.525043 1.524101 0.000000 -91.279200 8.034299 0.244132 1.382958 14.715303 -5.672801 -48.634854 2.040536 -2.657793 43.956802 -3.135919 -8.590221 -21.530474 2.094801 0.000000 -20.248900
-19.641100 16.193144 -2.896743 -163.857262 87.238175 -155.192035 -12.080697 6.873936 1.649116 2.461407 8.735868 16.953610 -0.101339 1.588606 13.078495 1.216930 3.778401 22.725203 1.324300 0.000000 -90.860600 8.072796 0.200424 1.328880 14.728209 -5.725739 -47.980555 1.962831 -2.682289 44.779220 -3.241229 -8.976704 -22.217284 2.314400 0.000000 -17.815400
-19.400112 16.211296 -2.859788 -163.907490 87.201518 -155.296139 -12.136674 6.916413 1.785725 2.787370 8.398519 16.343862 0.047941 1.666177 14.713457 1.363672 3.124498 25.772635 1.024700 -0.000001 -89.007600 8.105839 0.149993 1.268269 14.759261 -5.800011 -47.257730 1.900929 -2.694839 45.473227 -3.325451 -9.276228 -22.864558 2.519800 -0.000000 -15.398700
-19.160765 16.229798 -2.821907 -163.888578 87.197650 -155.357301 -12.198093 6.925025 1.903317 3.085113 8.112808 15.625355 0.174622 1.718148 16.551887 1.518192 2.503636 28.481989 0.682800 -0.000000 -85.629200 8.136406 0.093261 1.202226 14.795681 -5.888079 -46.455188 1.853844 -2.696299 46.040426 -3.384429 -9.472216 -23.462716 2.702300 -0.000000 -13.070500
-18.923533 16.248456 -2.783162 -163.845962 87.230149 -155.427510 -12.257919 6.899656 1.988965 3.346594 7.907216 14.798158 0.273191 1.752920 18.609473 1.668281 2.045199 30.671882 0.392500 0.000001 -80.840100 8.168315 0.030625 1.131730 14.823585 -5.983365 -45.562751 1.820006 -2.687973 46.486631 -3.416477 -9.558384 -24.007464 2.855500 -0.000000 -10.884400
-18.689427 16.267171 -2.743637 -163.820510 87.299630 -155.553512 -12.309855 6.843304 2.030923 3.568188 7.810574 13.858133 0.343916 1.783077 20.898443 1.803901 1.887398 32.194507 0.262200 -0.000000 -74.962801 8.205132 -0.037997 1.058765 14.831125 -6.079210 -44.572788 1.797478 -2.671323 46.820566 -3.422718 -9.539618 -24.500305 2.977100 0.000000 -8.865800
-18.458937 16.285878 -2.703515 -163.861333 87.402466 -155.787223 -12.347620 6.759107 2.021969 3.741882 7.833343 12.804551 0.393014 1.821628 23.414139 1.921026 2.158766 32.963866 0.390500 0.000000 -68.532300 8.250029 -0.111697 0.985566 14.807674 -6.170369 -43.483173 1.784527 -2.648541 47.051895 -3.406738 -9.431006 -24.947458 3.068400 0.000000 -7.019300
-18.232194 16.304658 -2.662987 -164.032580 87.535152 -156.191538 -12.366673 6.650330 1.959652 3.853957 7.967557 11.639169 0.429308 1.878854 26.141824 2.020911 2.940341 32.951029 0.829700 -0.000001 -62.112400 8.306223 -0.189216 0.913140 14.744796 -6.252914 -42.297291 1.779274 -2.621392 47.190659 -3.374016 -9.254339 -25.359955 3.134200 -0.000000 -5.326501
-18.009333 16.323614 -2.622280 -164.402263 87.691023 -156.829508 -12.364319 6.519592 1.846869 3.892158 8.195222 10.359973 0.461479 1.960839 29.062619 2.107521 4.238279 32.159364 1.560600 -0.000001 -56.081800 8.375790 -0.269491 0.843681 14.638119 -6.323119 -41.025043 1.780038 -2.591568 47.246161 -3.331697 -9.038084 -25.751389 3.182200 -0.000001 -3.756299
-17.790663 16.342962 -2.581690 -165.090516 87.862574 -157.813917 -12.337160 6.367879 1.691258 3.832758 8.474619 8.978260 0.496803 2.068424 32.129952 2.189554 6.016412 30.650506 2.514600 -0.000000 -50.941300 8.461723 -0.350181 0.776476 14.483319 -6.383259 -39.678498 1.785942 -2.560786 47.224819 -3.286376 -8.808149 -26.137133 3.220900 0.000000 -2.263800
-17.575511 16.362878 -2.541560 -166.154854 88.039538 -159.194030 -12.287879 6.197706 1.500908 3.677034 8.788696 7.486825 0.538735 2.200014 35.317429 2.271620 8.145689 28.450441 3.548000 -0.000000 -46.516100 8.562351 -0.431663 0.714107 14.286088 -6.430620 -38.272774 1.796133 -2.529660 47.130350 -3.245521 -8.594169 -26.530561 3.260000 -0.000000 -0.812800
-17.363718 16.383565 -2.502284 -167.661947 88.210840 -161.027303 -12.220056 6.010836 1.286655 3.423818 9.110219 5.887446 0.588504 2.350132 38.575296 2.360156 10.483529 25.623470 4.505600 0.000000 -42.673500 8.674919 -0.514552 0.657588 14.054736 -6.465088 -36.822528 1.810446 -2.498570 46.962856 -3.215092 -8.419781 -26.942515 -176.691800 -0.000001 -0.632700
-17.154783 16.405171 -2.464223 -169.653419 88.365867 -163.345211 -12.139627 5.808619 1.060748 3.074979 9.410016 4.185669 0.644886 2.510513 41.842664 2.461917 12.885733 22.272003 5.243700 0.000001 -39.349600 8.794504 -0.599907 0.606817 13.800453 -6.487342 -35.341483 1.828967 -2.467474 46.719773 -3.199397 -8.302757 -27.377952 -176.627800 -0.000000 -2.088701
-16.948281 16.427778 -2.427721 -172.111243 88.495556 -166.121345 -12.054800 5.592962 0.835115 2.639537 9.666031 2.386027 0.704243 2.672584 45.062417 2.579866 15.210768 18.499789 5.643100 -0.000000 -36.265300 8.913766 -0.689420 0.562013 13.536856 -6.496697 -33.840329 1.851752 -2.435620 46.396335 -3.200891 -8.253709 -27.835471 -176.543800 -0.000000 -3.550400
-16.743409 16.451367 -2.393082 -174.966436 88.595294 -169.278447 -11.974138 5.366065 0.621641 2.125829 9.854220 0.498113 0.761672 2.828095 48.175523 2.714650 17.347699 14.448241 5.640100 0.000000 -33.328700 9.024733 -0.783791 0.522160 13.276751 -6.493003 -32.326427 1.878483 -2.401661 45.986929 -3.219778 -8.275135 -28.305518 -176.438900 0.000000 -4.985100
-16.539649 16.475810 -2.360522 -178.074237 88.666991 -172.664688 -11.905477 5.131504 0.429710 1.543843 9.957545 -1.469303 0.811103 2.971933 51.133018 2.861340 19.208698 10.251645 5.221900 0.000000 -30.329100 9.119795 -0.881568 0.485533 13.031495 -6.474931 -30.804811 1.908188 -2.363357 45.486701 -3.254201 -8.361138 -28.772294 -176.315600 0.000000 -6.343000
-16.336435 16.500855 -2.330159 178.786445 88.718004 -176.052979 -11.853787 4.893918 0.267819 0.905145 9.961922 -3.505697 0.847658 3.101390 53.891036 3.012280 20.742156 6.071075 4.440100 0.000000 -27.347500 9.193494 -0.979753 0.450811 12.811456 -6.440019 -29.277224 1.939078 -2.317851 44.892330 -3.300889 -8.500970 -29.214294 -176.179501 0.000000 -7.552400
-16.133300 16.526143 -2.302063 175.876020 88.761547 -179.178469 -11.819563 4.658623 0.140181 0.222924 9.863280 -5.601769 0.867265 3.217573 56.419305 3.155899 21.915391 2.034195 3.383500 -0.000000 -24.310300 9.244211 -1.073348 0.416205 12.624300 -6.386068 -27.744437 1.969046 -2.262258 44.203005 -3.355344 -8.678589 -29.608765 -176.038700 -0.000000 -8.545200
-15.929830 16.551197 -2.276237 173.461605 88.810627 178.228931 -11.799502 4.429742 0.049135 -0.487756 9.663043 -7.747962 0.868808 3.322419 58.694652 3.280988 22.722032 -1.734654 2.173700 0.000000 -21.319900 9.273383 -1.158217 0.381090 12.476482 -6.311072 -26.206431 1.996063 -2.194554 43.420464 -3.412835 -8.877578 -29.933376 -175.902200 -0.000000 -9.255800
-15.725665 16.575521 -2.252623 171.711445 88.875965 176.338922 -11.787802 4.208568 -0.005916 -1.213398 9.368489 -9.934470 0.853662 3.417470 60.701589 3.378419 23.176517 -5.139095 0.937501 -0.000000 -18.490400 9.284813 -1.232046 0.344763 12.369581 -6.217187 -24.663859 2.018933 -2.114419 42.548868 -3.468437 -9.080824 -30.169171 -175.779800 0.000000 -9.634700
-15.520588 16.598571 -2.231092 170.681854 88.962992 175.207010 -11.778962 3.993743 -0.027461 -1.942466 8.993016 -12.151445 0.824775 3.502945 62.431426 3.442814 23.310628 -8.119862 -0.217001 0.000000 -15.858800 9.282110 -1.295022 0.307143 12.300915 -6.109649 -23.118867 2.037299 -2.022996 41.594826 -3.517951 -9.273655 -30.303454 -175.679700 -0.000000 -9.647900
-15.314391 16.619907 -2.211415 170.282360 89.072689 174.741243 -11.768400 3.781662 -0.019246 -2.667817 8.553516 -14.388917 0.785895 3.577413 63.879147 3.473963 23.175839 -10.646145 -1.212600 0.000000 -13.528900 9.268440 -1.349330 0.267958 12.262836 -5.998224 -21.575004 2.051627 -1.922615 40.566938 -3.557922 -9.443975 -30.329844 -175.608699 0.000000 -9.276900
-15.106956 16.639127 -2.193367 170.301777 89.203241 174.727544 -11.751941 3.567812 0.014016 -3.386976 8.070531 -16.636607 0.740148 3.638335 65.042206 3.476821 22.839822 -12.723504 -2.012800 0.000000 -11.472501 9.247091 -1.398146 0.226946 12.242910 -5.896292 -20.037047 2.062959 -1.816168 39.475330 -3.585705 -9.582239 -30.248793 -175.571100 0.000000 -8.514800
-14.898191 16.656001 -2.176634 170.440704 89.351287 174.862834 -11.724776 3.347839 0.067247 -4.100936 7.566312 -18.883214 0.690207 3.682332 65.917673 3.460561 22.383275 -14.371781 -2.612600 -0.000000 -9.760501 9.222390 -1.444913 0.183912 12.226802 -5.819435 -18.510306 2.072736 -1.706531 38.329374 -3.599639 -9.682140 -30.066898 -175.568600 0.000000 -7.362399
-14.687987 16.670367 -2.160931 170.329337 89.512991 174.773365 -11.680368 3.118352 0.134446 -4.813050 7.065205 -21.117618 0.636365 3.705949 66.504824 3.436835 21.886241 -15.654317 -3.042399 0.000000 -8.262900 9.200708 -1.492817 0.138952 12.199206 -5.784290 -17.001180 2.082617 -1.596326 37.137893 -3.598695 -9.739320 -29.795571 -175.600900 -0.000000 -5.824601
